<?xml version="1.0" encoding="UTF-8"?>
<svg width="24px" height="24px" viewBox="0 0 24 24" version="1.1" xmlns="http://www.w3.org/2000/svg" xmlns:xlink="http://www.w3.org/1999/xlink">
    <!-- Generator: Sketch 52.2 (67145) - http://www.bohemiancoding.com/sketch -->
    <title>API Reference</title>
    <desc>Created with Sketch.</desc>
    <g id="API-Reference" stroke="none" stroke-width="1" fill="none" fill-rule="evenodd">
        <g id="Page-1" transform="translate(0.750000, 4.500000)">
            <path d="M17.9970341,13.3757898 L17.9970341,14.5345398 C17.9970341,14.7406193 17.8303295,14.9073239 17.62425,14.9073239 L0.628568182,14.9073239 C0.423,14.9073239 0.255784091,14.7406193 0.255784091,14.5345398 L0.255784091,0.628517045 C0.255784091,0.4224375 0.423,0.255732955 0.628568182,0.255732955 L17.62425,0.255732955 C17.8303295,0.255732955 17.9970341,0.4224375 17.9970341,0.628517045 L17.9970341,1.78777841" id="Stroke-1" stroke="#0074C4" stroke-width="1.125" stroke-linecap="round" stroke-linejoin="round"></path>
            <path d="M15.6989148,3.20993182 C13.2852784,3.20993182 11.321642,5.17356818 11.321642,7.58771591 C11.321642,10.0003295 13.2852784,11.9639659 15.6989148,11.9639659 C18.1125511,11.9639659 20.0756761,10.0003295 20.0756761,7.58771591 C20.0756761,5.17356818 18.1125511,3.20993182 15.6989148,3.20993182 Z" id="Stroke-3" stroke="#0074C4" stroke-width="1.125" stroke-linecap="round" stroke-linejoin="round"></path>
            <polygon id="Fill-5" fill="#0074C4" points="15.1189773 8.861625 18.5957386 8.861625 18.5957386 8.11554545 15.1189773 8.11554545"></polygon>
            <polygon id="Fill-7" fill="#0074C4" points="12.8019886 8.861625 14.3468182 8.861625 14.3468182 8.11554545 12.8019886 8.11554545"></polygon>
            <polygon id="Fill-8" fill="#0074C4" points="16.6643182 7.05855682 18.2091477 7.05855682 18.2091477 6.31298864 16.6643182 6.31298864"></polygon>
            <polygon id="Fill-9" fill="#0074C4" points="12.8014773 7.05855682 16.2782386 7.05855682 16.2782386 6.31298864 12.8014773 6.31298864"></polygon>
            <path d="M19.0832216,10.4129489 L21.8824261,12.7698239" id="Stroke-10" stroke="#0074C4" stroke-width="1.125" stroke-linecap="round" stroke-linejoin="round"></path>
            <polygon id="Fill-11" fill="#0074C4" points="7.79573864 12.8395227 9.21221591 12.8395227 9.21221591 12.0934432 7.79573864 12.0934432"></polygon>
            <polygon id="Fill-12" fill="#0074C4" points="4.25505682 12.8395227 7.441875 12.8395227 7.441875 12.0934432 4.25505682 12.0934432"></polygon>
            <polygon id="Fill-13" fill="#0074C4" points="5.67102273 11.0369659 10.1776705 11.0369659 10.1776705 10.2908864 5.67102273 10.2908864"></polygon>
            <polygon id="Fill-14" fill="#0074C4" points="4.25454545 11.0369659 5.31664773 11.0369659 5.31664773 10.2908864 4.25454545 10.2908864"></polygon>
            <polygon id="Fill-15" fill="#0074C4" points="2.83857955 9.59492045 6.02539773 9.59492045 6.02539773 8.84884091 2.83857955 8.84884091"></polygon>
            <polygon id="Fill-16" fill="#0074C4" points="7.79573864 8.15236364 9.21221591 8.15236364 9.21221591 7.40679545 7.79573864 7.40679545"></polygon>
            <polygon id="Fill-17" fill="#0074C4" points="4.25505682 8.15236364 7.441875 8.15236364 7.441875 7.40679545 4.25505682 7.40679545"></polygon>
            <polygon id="Fill-18" fill="#0074C4" points="5.67153409 6.71082955 9.14727273 6.71082955 9.14727273 5.96475 5.67153409 5.96475"></polygon>
            <polygon id="Fill-19" fill="#0074C4" points="4.25454545 6.71082955 5.31664773 6.71082955 5.31664773 5.96475 4.25454545 5.96475"></polygon>
            <polygon id="Fill-21" fill="#0074C4" points="5.68840909 2.02367045 6.69017045 2.02367045 6.69017045 1.05565909 5.68840909 1.05565909"></polygon>
            <polygon id="Fill-22" fill="#0074C4" points="3.68386364 2.02367045 4.68613636 2.02367045 4.68613636 1.05565909 3.68386364 1.05565909"></polygon>
            <polygon id="Fill-23" fill="#0074C4" points="1.67982955 2.02367045 2.68261364 2.02367045 2.68261364 1.05565909 1.67982955 1.05565909"></polygon>
            <path d="M0.255630682,3.4505625 L12.230233,3.4505625" id="Stroke-24" stroke="#0074C4" stroke-width="1.125" stroke-linecap="round" stroke-linejoin="round"></path>
        </g>
    </g>
</svg>