<?xml version="1.0" encoding="UTF-8"?>
<svg width="24px" height="24px" viewBox="0 0 24 24" version="1.1" xmlns="http://www.w3.org/2000/svg" xmlns:xlink="http://www.w3.org/1999/xlink">
    <!-- Generator: Sketch 52.2 (67145) - http://www.bohemiancoding.com/sketch -->
    <title>Become Partner</title>
    <desc>Created with Sketch.</desc>
    <g id="Become-Partner" stroke="none" stroke-width="1" fill="none" fill-rule="evenodd" stroke-linecap="round" stroke-linejoin="round">
        <g id="Page-1" transform="translate(0.750000, 3.000000)" stroke="#0074C4" stroke-width="1.125">
            <path d="M15.2684505,4.46443868 C15.2684505,4.46443868 14.4305731,5.37820755 14.1384127,5.32819811 C13.6370024,5.2417783 13.1347146,5.24046226 12.706125,5.33170755" id="Stroke-1"></path>
            <path d="M6.7844816,4.65250047 L8.25581179,5.50704764 C10.3395382,4.82621745 12.7062127,5.33157594 12.7062127,5.33157594 C12.7062127,5.33157594 9.56877877,6.87221745 8.93444858,7.80441085 C8.42996745,8.54577877 8.11236368,10.4255193 8.20667972,11.3177929 C8.24703821,11.704708 8.75985425,13.1633165 9.11255236,13.3278212 C9.51350519,13.5146986 10.3601561,13.0080241 10.5325571,12.2460382 C10.6641608,11.6625948 10.2360099,10.3772646 10.5277316,9.85523632 C10.7593542,9.44112311 11.6415382,9.09500519 11.6415382,9.09500519 L11.7946373,9.03446745 C12.3464958,10.0175476 13.4918873,10.5724769 14.6526325,10.3250618 C15.3448684,10.1776656 15.9151514,9.77144858 16.284958,9.22967972" id="Stroke-3"></path>
            <path d="M17.55375,11.621666 C17.55375,11.621666 17.8516132,10.9886519 18.0494575,10.4385481 C18.2275613,9.9441566 18.3091557,8.06397736 18.3091557,8.06397736" id="Stroke-5"></path>
            <path d="M10.8705594,16.810408 C11.1530689,17.0117618 13.2854887,17.8281439 14.0264179,17.1889882 C14.505017,16.7770684 14.3076113,16.333125 14.3076113,16.333125 C14.3076113,16.333125 14.9893189,16.5844882 15.5341585,16.0392099 C15.8837858,15.6895825 15.6723425,15.102191 15.6723425,15.102191 C15.6723425,15.102191 16.5733896,15.4430448 16.9910123,14.9657618 C17.4990028,14.3853892 17.3362528,13.9054741 17.3362528,13.9054741 C17.3362528,13.9054741 17.9315406,14.0116344 18.3092434,13.0917241 C18.7904745,11.9200118 15.1525075,10.1657335 15.1525075,10.1657335" id="Stroke-7"></path>
            <path d="M4.90636415,8.71839906 C5.13886415,9.59400283 5.62316604,11.3719698 6.20485472,12.2629274" id="Stroke-9"></path>
            <path d="M10.8733231,15.9519127 C10.6272241,15.7189741 10.2933892,15.6373797 9.98499764,15.7027429 C10.2232005,15.311441 10.1657335,14.7946769 9.82005425,14.4669835 C9.59413443,14.2533467 9.29495519,14.170875 9.00893632,14.2081627 C9.08395047,13.8778373 8.99138915,13.5181203 8.72774292,13.2685118 C8.43558255,12.9917052 8.01971462,12.9294127 7.66964858,13.0728608 C7.71307783,12.7653467 7.61393632,12.4429175 7.37178538,12.2134882 C6.9739033,11.8366627 5.49072877,12.1428608 5.75130425,13.3645825 C6.02196934,14.6319269 7.36345047,14.7086958 7.36345047,14.7086958 C7.27659198,15.1881722 7.78282783,16.0475448 8.45576179,15.9076061 C8.45576179,15.9076061 8.9650684,17.5671297 10.2688231,17.2890071 C10.8044505,17.1749505 11.2712052,16.3282995 10.8733231,15.9519127 Z" id="Stroke-11"></path>
            <polygon id="Stroke-13" points="6.96719151 3.54637075 3.93767264 10.6977198 2.03994623 9.25183302 4.99094151 2.14917736"></polygon>
            <polyline id="Stroke-15" points="0.219295755 9.35544906 1.54805519 10.143317 5.22638066 1.51800566 4.10204575 0.700307547"></polyline>
            <polygon id="Stroke-17" points="14.6817608 3.72157925 19.5563646 9.00985755 21.1812325 7.23803208 16.4702561 1.97607453"></polygon>
            <polyline id="Stroke-19" points="23.0243873 6.89042264 22.0193731 8.06388962 16.0256986 1.36920566 17.1824958 0.219427358"></polyline>
        </g>
    </g>
</svg>