<?xml version="1.0" encoding="UTF-8"?>
<svg width="24px" height="24px" viewBox="0 0 24 24" version="1.1" xmlns="http://www.w3.org/2000/svg" xmlns:xlink="http://www.w3.org/1999/xlink">
    <!-- Generator: Sketch 52.2 (67145) - http://www.bohemiancoding.com/sketch -->
    <title>Blog</title>
    <desc>Created with Sketch.</desc>
    <g id="Blog" stroke="none" stroke-width="1" fill="none" fill-rule="evenodd">
        <g id="Page-1" transform="translate(0.750000, 1.500000)">
            <path d="M19.26075,13.58085 L10.12525,13.58085 C9.82925,13.58085 9.58925,13.34135 9.58925,13.04485 L9.58925,8.83835 C9.58925,8.54235 9.82925,8.30185 10.12525,8.30185 L19.26075,8.30185 C19.55675,8.30185 19.79675,8.54235 19.79675,8.83835 L19.79675,13.04485 C19.79675,13.34135 19.55675,13.58085 19.26075,13.58085" id="Fill-1" fill="#0074C4"></path>
            <path d="M2.71095,9.6443 L8.40845,9.6443" id="Stroke-3" stroke="#0074C4" stroke-width="1.125" stroke-linecap="round"></path>
            <path d="M2.71095,12.3323 L8.40845,12.3323" id="Stroke-5" stroke="#0074C4" stroke-width="1.125" stroke-linecap="round"></path>
            <path d="M2.71095,6.677 L19.30345,6.677" id="Stroke-7" stroke="#0074C4" stroke-width="1.125" stroke-linecap="round"></path>
            <path d="M2.71095,15.2063 L19.30345,15.2063" id="Stroke-9" stroke="#0074C4" stroke-width="1.125" stroke-linecap="round"></path>
            <path d="M2.71095,17.719 L15.59995,17.719" id="Stroke-11" stroke="#0074C4" stroke-width="1.125" stroke-linecap="round"></path>
            <path d="M21.5281,20.10475 L0.9796,20.10475 C0.6456,20.10475 0.3751,19.83425 0.3751,19.50025 L0.3751,0.97975 C0.3751,0.64575 0.6456,0.37475 0.9796,0.37475 L21.5281,0.37475 C21.8621,0.37475 22.1326,0.64575 22.1326,0.97975 L22.1326,19.50025 C22.1326,19.83425 21.8621,20.10475 21.5281,20.10475 Z" id="Stroke-13" stroke="#0074C4" stroke-width="1.125" stroke-linecap="round"></path>
            <path d="M0.375,4.21705 L22.133,4.21705" id="Stroke-15" stroke="#0074C4" stroke-width="1.125" stroke-linecap="round"></path>
            <path d="M2.8357,2.31765 C2.8357,2.60365 2.6037,2.83565 2.3177,2.83565 C2.0317,2.83565 1.7997,2.60365 1.7997,2.31765 C1.7997,2.03165 2.0317,1.79965 2.3177,1.79965 C2.6037,1.79965 2.8357,2.03165 2.8357,2.31765" id="Fill-17" fill="#0074C4"></path>
            <path d="M4.5342,2.31765 C4.5342,2.60365 4.3022,2.83565 4.0162,2.83565 C3.7302,2.83565 3.4982,2.60365 3.4982,2.31765 C3.4982,2.03165 3.7302,1.79965 4.0162,1.79965 C4.3022,1.79965 4.5342,2.03165 4.5342,2.31765" id="Fill-19" fill="#0074C4"></path>
            <path d="M6.2327,2.31765 C6.2327,2.60365 6.0007,2.83565 5.7147,2.83565 C5.4287,2.83565 5.1967,2.60365 5.1967,2.31765 C5.1967,2.03165 5.4287,1.79965 5.7147,1.79965 C6.0007,1.79965 6.2327,2.03165 6.2327,2.31765" id="Fill-21" fill="#0074C4"></path>
        </g>
    </g>
</svg>