<?xml version="1.0" encoding="UTF-8"?>
<svg width="24px" height="24px" viewBox="0 0 24 24" version="1.1" xmlns="http://www.w3.org/2000/svg" xmlns:xlink="http://www.w3.org/1999/xlink">
    <!-- Generator: Sketch 52.2 (67145) - http://www.bohemiancoding.com/sketch -->
    <title>Community</title>
    <desc>Created with Sketch.</desc>
    <g id="Community" stroke="none" stroke-width="1" fill="none" fill-rule="evenodd">
        <g id="Page-1" transform="translate(0.750000, 3.000000)">
            <path d="M19.0716037,4.2075 C19.0716037,5.29682927 18.2237378,6.17817073 17.1442866,6.22591463 L16.8424573,6.21329268 C15.815689,6.10902439 15.0205061,5.23920732 15.0205061,4.2075 C15.0205061,3.09073171 15.9292866,2.18195122 17.0460549,2.18195122 C18.1628232,2.18195122 19.0716037,3.09073171 19.0716037,4.2075 Z M13.8378841,3.09237805 C13.8378841,4.6097561 12.620689,5.85987805 11.1219695,5.90981707 L10.7564817,5.89609756 C9.31757927,5.76219512 8.19916463,4.54390244 8.19916463,3.09237805 C8.19916463,1.53878049 9.46410366,0.274390244 11.0187988,0.274390244 C12.5729451,0.274390244 13.8378841,1.53878049 13.8378841,3.09237805 Z M18.9986159,12.5286585 C18.96075,12.6609146 18.9190427,12.7860366 18.8740427,12.9018293 C18.5134939,13.8303659 16.948372,14.0542683 15.703189,13.7277439 L15.6077012,13.7025 M7.20422561,9.37810976 C7.1455061,8.70146341 7.11148171,8.31237805 7.07471341,8.0747561 C7.95111585,6.84987805 9.23306707,6.1847561 10.8766646,6.09640244 C10.8766646,6.09640244 10.9886159,6.10353659 11.0336159,6.10189024 C12.5894085,6.20396341 13.8137378,6.82463415 14.6703841,7.94689024 C14.6610549,8.50335366 14.5699573,12.1170732 13.8592866,13.9483537 C13.5278232,14.805 12.4873354,15.3104268 11.0654451,15.3104268 M15.0205061,7.16487805 C15.4655671,6.93109756 16.1537378,6.56067073 17.0466037,6.55573171 C17.9323354,6.55134146 18.9201402,7.04579268 19.5199573,7.72353659" id="Stroke-1" stroke="#0074C4" stroke-width="1.125" stroke-linecap="round" stroke-linejoin="round"></path>
            <path d="M6.67904268,4.2075 C6.67904268,5.27378049 5.84105488,6.15841463 4.7830061,6.22097561 C4.76489634,6.22042683 4.5552622,6.2297561 4.5552622,6.2297561 L4.5552622,6.23085366 C3.48404268,6.17926829 2.62794512,5.29079268 2.62794512,4.2075 C2.62794512,3.09073171 3.53617683,2.18195122 4.65404268,2.18195122 C5.77081098,2.18195122 6.67904268,3.09073171 6.67904268,4.2075 Z M2.62465244,10.1134756 C2.32337195,8.90012195 2.33105488,7.92329268 2.3305061,7.875 C2.94075,7.08914634 3.79794512,6.55737805 4.87575,6.55573171 C5.44318902,6.55518293 5.94422561,6.73792683 6.37172561,6.96292683" id="Stroke-3" stroke="#0074C4" stroke-width="1.125" stroke-linecap="round" stroke-linejoin="round"></path>
            <path d="M10.3420427,12.3989817 C10.3535671,11.680628 9.77460366,11.0923354 9.05625,11.0923354 L9.09685976,9.87020122 C9.09521341,9.70062805 8.91137195,9.59581098 8.76375,9.68087195 L6.32990854,11.0923354 L1.56045732,11.0923354 C0.844847561,11.0923354 0.266981707,11.6767866 0.274115854,12.3918476 L0.321859756,15.8519085 C0.329542683,16.5565427 0.903018293,17.1239817 1.60765244,17.1239817 L8.98435976,17.1239817 C9.68679878,17.1239817 10.2591768,16.5603841 10.2701524,15.8584939 L10.3420427,12.3989817 Z" id="Stroke-5" stroke="#0074C4" stroke-width="1.125" stroke-linecap="round" stroke-linejoin="round"></path>
            <path d="M16.6690976,11.2807866 C16.6756829,11.6753598 16.9972683,11.9920061 17.3912927,11.9920061 L21.5362317,11.9920061 C21.9324512,11.9920061 22.2551341,11.6731646 22.2589756,11.2769451 L22.2853171,9.33316463 C22.2897073,8.93090854 21.9648293,8.6027378 21.563122,8.6027378 L18.882878,8.6027378 L17.5153171,7.80975 C17.433,7.76145732 17.3292805,7.82072561 17.3281829,7.91621341 L17.3512317,8.6027378 C16.947878,8.6027378 16.6224512,8.93310366 16.6290366,9.3370061 L16.6690976,11.2807866 Z" id="Stroke-7" stroke="#0074C4" stroke-width="0.75" stroke-linecap="round" stroke-linejoin="round"></path>
            <path d="M20.9527134,9.8922622 C21.1766159,9.8922622 21.3577134,10.0739085 21.3577134,10.297811 C21.3577134,10.5217134 21.1766159,10.7033598 20.9527134,10.7033598 C20.728811,10.7033598 20.5471646,10.5217134 20.5471646,10.297811 C20.5471646,10.0739085 20.728811,9.8922622 20.9527134,9.8922622" id="Fill-9" fill="#0074C4"></path>
            <path d="M19.674,9.8922622 C19.8979024,9.8922622 20.0795488,10.0739085 20.0795488,10.297811 C20.0795488,10.5217134 19.8979024,10.7033598 19.674,10.7033598 C19.4500976,10.7033598 19.2684512,10.5217134 19.2684512,10.297811 C19.2684512,10.0739085 19.4500976,9.8922622 19.674,9.8922622" id="Fill-11" fill="#0074C4"></path>
            <path d="M18.337939,9.8922622 C18.5618415,9.8922622 18.7434878,10.0739085 18.7434878,10.297811 C18.7434878,10.5217134 18.5618415,10.7033598 18.337939,10.7033598 C18.1140366,10.7033598 17.9323902,10.5217134 17.9323902,10.297811 C17.9323902,10.0739085 18.1140366,9.8922622 18.337939,9.8922622" id="Fill-13" fill="#0074C4"></path>
            <path d="M2.74110366,13.3127561 C3.18122561,13.3127561 3.53738415,13.6694634 3.53738415,14.1090366 C3.53738415,14.5491585 3.18122561,14.9053171 2.74110366,14.9053171 C2.30153049,14.9053171 1.94482317,14.5491585 1.94482317,14.1090366 C1.94482317,13.6694634 2.30153049,13.3127561 2.74110366,13.3127561" id="Fill-15" fill="#0074C4"></path>
            <path d="M5.30818902,13.3127561 C5.74831098,13.3127561 6.10446951,13.6694634 6.10446951,14.1090366 C6.10446951,14.5491585 5.74831098,14.9053171 5.30818902,14.9053171 C4.86806707,14.9053171 4.51190854,14.5491585 4.51190854,14.1090366 C4.51190854,13.6694634 4.86806707,13.3127561 5.30818902,13.3127561" id="Fill-17" fill="#0074C4"></path>
            <path d="M7.87521951,13.3127561 C8.31534146,13.3127561 8.6715,13.6694634 8.6715,14.1090366 C8.6715,14.5491585 8.31534146,14.9053171 7.87521951,14.9053171 C7.43564634,14.9053171 7.07893902,14.5491585 7.07893902,14.1090366 C7.07893902,13.6694634 7.43564634,13.3127561 7.87521951,13.3127561" id="Fill-19" fill="#0074C4"></path>
        </g>
    </g>
</svg>