<?xml version="1.0" encoding="UTF-8"?>
<svg width="24px" height="24px" viewBox="0 0 24 24" version="1.1" xmlns="http://www.w3.org/2000/svg" xmlns:xlink="http://www.w3.org/1999/xlink">
    <!-- Generator: Sketch 52.2 (67145) - http://www.bohemiancoding.com/sketch -->
    <title>Customer Success Stories</title>
    <desc>Created with Sketch.</desc>
    <g id="Customer-Success-Stories" stroke="none" stroke-width="1" fill="none" fill-rule="evenodd">
        <g id="Page-1" transform="translate(0.750000, 1.500000)">
            <path d="M21.528,20.1049 L0.98,20.1049 C0.646,20.1049 0.375,19.8339 0.375,19.4999 L0.375,0.9799 C0.375,0.6459 0.646,0.3749 0.98,0.3749 L21.528,0.3749 C21.862,0.3749 22.1325,0.6459 22.1325,0.9799 L22.1325,19.4999 C22.1325,19.8339 21.862,20.1049 21.528,20.1049 Z" id="Stroke-1" stroke="#0074C4" stroke-width="1.125" stroke-linecap="round"></path>
            <path d="M0.3749,4.2172 L22.1329,4.2172" id="Stroke-3" stroke="#0074C4" stroke-width="1.125" stroke-linecap="round"></path>
            <path d="M2.8356,2.3178 C2.8356,2.6038 2.6036,2.8358 2.3176,2.8358 C2.0316,2.8358 1.7996,2.6038 1.7996,2.3178 C1.7996,2.0318 2.0316,1.7998 2.3176,1.7998 C2.6036,1.7998 2.8356,2.0318 2.8356,2.3178" id="Fill-5" fill="#0074C4"></path>
            <path d="M4.5343,2.3178 C4.5343,2.6038 4.3023,2.8358 4.0163,2.8358 C3.7303,2.8358 3.4983,2.6038 3.4983,2.3178 C3.4983,2.0318 3.7303,1.7998 4.0163,1.7998 C4.3023,1.7998 4.5343,2.0318 4.5343,2.3178" id="Fill-7" fill="#0074C4"></path>
            <path d="M6.2328,2.3178 C6.2328,2.6038 6.0008,2.8358 5.7148,2.8358 C5.4288,2.8358 5.1968,2.6038 5.1968,2.3178 C5.1968,2.0318 5.4288,1.7998 5.7148,1.7998 C6.0008,1.7998 6.2328,2.0318 6.2328,2.3178" id="Fill-9" fill="#0074C4"></path>
            <path d="M9.8561,14.6874 L9.8566,14.6874 L9.8566,10.7314 C9.8566,9.5074 9.4191,8.0469 7.9316,7.6334 C7.7731,7.5894 7.4131,7.8424 7.4131,7.8424 C7.4131,7.8424 6.9506,7.5114 6.7086,7.4924 C4.8681,7.3464 3.5601,9.0894 3.5601,10.7314 L3.5601,14.6579 L3.5731,14.6579" id="Stroke-11" stroke="#0074C4" stroke-width="1.125" stroke-linecap="round"></path>
            <path d="M4.40175,10.73135 C4.40175,12.00935 5.43725,13.04435 6.71475,13.04435 C7.99225,13.04435 9.02775,12.00935 9.02775,10.73135 L6.71475,8.41885 C5.43725,8.41885 4.40175,9.45335 4.40175,10.73135" id="Fill-13" fill="#0074C4"></path>
            <path d="M10.6144,16.7255 C10.4179,15.7695 10.0229,14.8525 9.4214,14.1905 L9.2139,13.9925 C8.9579,13.7515 8.6689,13.554 8.3464,13.4145 C8.3464,13.4145 7.3249,14.758 6.7019,14.758 C6.0794,14.758 5.0579,13.4145 5.0579,13.4145 C3.8394,13.9435 3.0974,15.29 2.8024,16.7255" id="Stroke-15" stroke="#0074C4" stroke-width="1.125" stroke-linecap="round"></path>
            <path d="M13.36245,8.3954 L19.05995,8.3954" id="Stroke-17" stroke="#0074C4" stroke-width="1.125" stroke-linecap="round"></path>
            <path d="M13.36245,11.0834 L19.05995,11.0834" id="Stroke-19" stroke="#0074C4" stroke-width="1.125" stroke-linecap="round"></path>
            <path d="M13.36295,13.89885 L19.06045,13.89885" id="Stroke-21" stroke="#0074C4" stroke-width="1.125" stroke-linecap="round"></path>
            <path d="M13.36295,16.5868 L16.63445,16.5868" id="Stroke-23" stroke="#0074C4" stroke-width="1.125" stroke-linecap="round"></path>
        </g>
    </g>
</svg>