<?xml version="1.0" encoding="UTF-8"?>
<svg width="24px" height="24px" viewBox="0 0 24 24" version="1.1" xmlns="http://www.w3.org/2000/svg" xmlns:xlink="http://www.w3.org/1999/xlink">
    <!-- Generator: Sketch 52.2 (67145) - http://www.bohemiancoding.com/sketch -->
    <title>Dispatch</title>
    <desc>Created with Sketch.</desc>
    <g id="Dispatch" stroke="none" stroke-width="1" fill="none" fill-rule="evenodd">
        <g id="Page-1" transform="translate(1.500000, 3.000000)">
            <path d="M11.7075234,17.2183359 C10.9650234,17.6458359 9.80908594,17.6240391 8.98783594,17.6240391 C7.82486719,17.6240391 6.69635156,17.3969297 5.63392969,16.9490391 L0.889945312,18.1970859 L2.01213281,14.0774766 C0.937054687,12.6072422 0.362601562,10.8677109 0.352054688,9.04169531 C0.337289062,6.73474219 1.22252344,4.55997656 2.84392969,2.91888281 C4.46463281,1.27778906 6.62744531,0.365835937 8.93439844,0.351773437 L8.98924219,0.351773437 C12.2411953,0.351773437 15.0846328,2.16091406 16.5562734,4.83067969" id="Stroke-1" stroke="#0075C8" stroke-width="1.125" stroke-linecap="round" stroke-linejoin="round"></path>
            <path d="M17.4697608,16.0785991 C16.1704437,16.0738914 15.0923872,15.7008085 14.4203672,14.6886594 L15.1994867,12.8609063 L15.6161155,13.6417911 C15.9974368,14.3938415 16.6306185,14.5138871 17.4756454,14.5168294 L17.7945901,14.5180063 L17.7992978,13.2763582 C17.7998862,13.0780476 18.0258544,12.9650635 18.1847383,13.0839321 L20.9028296,15.1158805 C21.032879,15.2123877 21.0322906,15.4071676 20.9016527,15.5030864 L18.1688499,17.516204 C18.0093776,17.6344842 17.7839978,17.5191463 17.7845863,17.3208357 L17.789294,16.079776 L17.4697608,16.0785991 Z" id="Stroke-3" stroke="#0075C8" stroke-width="0.75" fill="#0077C8" stroke-linecap="round" stroke-linejoin="round"></path>
            <path d="M18.1551094,5.84064844 L21.4197188,8.24744531 C21.5744063,8.36205469 21.5751094,8.59478906 21.421125,8.71010156 L18.1712812,11.1365859 C17.9814375,11.2786172 17.7114375,11.1436172 17.7107344,10.9066641 L17.7058125,9.42377344 L17.3247187,9.42517969 C16.3157344,9.42799219 15.5591719,9.57072656 15.1028437,10.4686172 L13.3260469,14.4307266 L13.2972187,14.4968203 C12.9772969,15.1451016 11.9043281,17.1497109 11.9043281,17.1497109 L11.4360469,17.3493984 C11.4360469,17.3493984 12.5694844,12.8451797 12.7930781,12.0893203 C13.0201875,11.3215078 13.2170625,10.3308047 13.6614375,9.24307031 C14.4637031,8.01611719 15.7574531,7.56330469 17.3197969,7.55838281 L17.7008906,7.55697656 L17.6959687,6.07408594 C17.6952656,5.83642969 17.9645625,5.70072656 18.1551094,5.84064844 Z" id="Stroke-5" stroke="#0075C8" stroke-width="0.75" fill="#0077C8" stroke-linecap="round" stroke-linejoin="round"></path>
            <path d="M4.01835938,10.4429531 L10.8105469,10.4429531 L10.8105469,9.261 L4.01835938,9.261 L4.01835938,10.4429531 Z M7.01648438,7.522875 L13.2103125,7.522875 L13.2103125,6.34092187 L7.01648438,6.34092187 L7.01648438,7.522875 Z M6.29648438,6.93225 C6.29648438,7.56154687 5.78671875,8.0713125 5.15742188,8.0713125 C4.52882813,8.0713125 4.01835938,7.56154687 4.01835938,6.93225 C4.01835938,6.30295312 4.52882813,5.79248437 5.15742188,5.79248437 C5.78671875,5.79248437 6.29648438,6.30295312 6.29648438,6.93225 Z" id="Fill-7" fill="#0075C8"></path>
        </g>
    </g>
</svg>