<?xml version="1.0" encoding="UTF-8"?>
<svg width="24px" height="24px" viewBox="0 0 24 24" version="1.1" xmlns="http://www.w3.org/2000/svg" xmlns:xlink="http://www.w3.org/1999/xlink">
    <!-- Generator: Sketch 52.2 (67145) - http://www.bohemiancoding.com/sketch -->
    <title>Documentation</title>
    <desc>Created with Sketch.</desc>
    <g id="Documentation" stroke="none" stroke-width="1" fill="none" fill-rule="evenodd">
        <g id="Page-1" transform="translate(3.750000, 0.750000)">
            <polyline id="Stroke-1" stroke="#0074C4" stroke-width="1.125" stroke-linecap="round" points="4.05101163 1.7645686 0.340116279 1.7645686 0.340116279 21.679964 15.8793488 21.679964 15.8793488 13.7280453"></polyline>
            <polyline id="Stroke-3" stroke="#0074C4" stroke-width="1.125" stroke-linecap="round" points="12.2138023 1.7645686 15.8793488 1.7645686 15.8793488 9.94821977"></polyline>
            <polygon id="Stroke-4" stroke="#0074C4" stroke-width="1.125" stroke-linecap="round" points="4.76117442 4.58671744 11.4578372 4.58671744 11.4578372 0.339798837 4.76117442 0.339798837"></polygon>
            <polyline id="Stroke-6" stroke="#0074C4" stroke-width="1.125" stroke-linecap="round" points="4.13912442 3.33985116 2.12382209 3.33985116 2.12382209 19.6645256 14.3680081 19.6645256 14.3680081 15.164107"></polyline>
            <polyline id="Stroke-7" stroke="#0074C4" stroke-width="1.125" stroke-linecap="round" points="12.2138023 3.33985116 14.3678721 3.33985116 14.3678721 10.930793"></polyline>
            <path d="M4.05101163,6.6652814 L12.2138023,6.6652814" id="Stroke-8" stroke="#0074C4" stroke-width="1.125" stroke-linecap="round"></path>
            <path d="M4.05101163,8.21485116 L12.2138023,8.21485116" id="Stroke-9" stroke="#0074C4" stroke-width="1.125" stroke-linecap="round"></path>
            <path d="M4.05101163,9.76442093 L12.2138023,9.76442093" id="Stroke-10" stroke="#0074C4" stroke-width="1.125" stroke-linecap="round"></path>
            <path d="M4.05101163,13.4299674 L10.8533372,13.4299674" id="Stroke-11" stroke="#0074C4" stroke-width="1.125" stroke-linecap="round"></path>
            <path d="M4.05101163,14.9038047 L8.13240698,14.9038047" id="Stroke-12" stroke="#0074C4" stroke-width="1.125" stroke-linecap="round"></path>
            <path d="M4.05101163,11.3516302 L8.13240698,11.3516302" id="Stroke-13" stroke="#0074C4" stroke-width="1.125" stroke-linecap="round"></path>
            <path d="M19.4408198,9.4437593 L10.0663081,16.9675849 L8.97430814,17.393864 L9.58152907,16.3816779 L18.8549128,8.80524767 C19.0712267,8.82066628 19.4571453,9.22789884 19.4408198,9.4437593" id="Fill-14" fill="#0074C4"></path>
        </g>
    </g>
</svg>