<?xml version="1.0" encoding="UTF-8"?>
<svg width="24px" height="24px" viewBox="0 0 24 24" version="1.1" xmlns="http://www.w3.org/2000/svg" xmlns:xlink="http://www.w3.org/1999/xlink">
    <!-- Generator: Sketch 52.2 (67145) - http://www.bohemiancoding.com/sketch -->
    <title>Find Partner</title>
    <desc>Created with Sketch.</desc>
    <defs>
        <polygon id="path-1" points="0 0.336628013 9.77190874 0.336628013 9.77190874 10.1089659 0 10.1089659"></polygon>
        <polygon id="path-3" points="0.3129 0.34775 6.3719 0.34775 6.3719 4 0.3129 4"></polygon>
    </defs>
    <g id="Find-Partner" stroke="none" stroke-width="1" fill="none" fill-rule="evenodd">
        <g id="Page-1" transform="translate(3.750000, 2.250000)">
            <path d="M11.99225,0.24985 C13.79075,0.24985 15.24875,1.70735 15.24875,3.50585 C15.24875,5.30435 13.79075,6.76235 11.99225,6.76235 C10.19425,6.76235 8.73525,5.30435 8.73525,3.50585 C8.73525,1.70735 10.19425,0.24985 11.99225,0.24985 Z" id="Stroke-1" stroke="#0074C4" stroke-width="1.125" stroke-linecap="round" stroke-linejoin="round"></path>
            <path d="M13.94415,16.9427 C14.54665,16.6807 15.02165,16.2687 15.24865,15.6827 C16.08465,13.5257 16.11265,9.2362 16.11265,9.2362 C15.17665,7.9562 13.75565,7.1407 11.77465,7.0792" id="Stroke-3" stroke="#0074C4" stroke-width="1.125" stroke-linecap="round" stroke-linejoin="round"></path>
            <path d="M12.00595,7.07945 C9.94695,7.14295 8.49245,8.02195 7.55895,9.38945" id="Stroke-5" stroke="#0074C4" stroke-width="1.125" stroke-linecap="round" stroke-linejoin="round"></path>
            <path d="M4.92365,1.9178 C6.26815,1.9178 7.35815,3.0078 7.35815,4.3528 C7.35815,5.6978 6.26815,6.7878 4.92365,6.7878 C3.57815,6.7878 2.48815,5.6978 2.48815,4.3528 C2.48815,3.0078 3.57815,1.9178 4.92365,1.9178 Z" id="Stroke-7" stroke="#0074C4" stroke-width="1.125" stroke-linecap="round" stroke-linejoin="round"></path>
            <path d="M6.70735,7.9198 C6.16185,7.6313 5.51585,7.4618 4.76085,7.4383" id="Stroke-9" stroke="#0074C4" stroke-width="1.125" stroke-linecap="round" stroke-linejoin="round"></path>
            <path d="M4.93345,7.43835 C4.17995,7.46185 3.53395,7.63085 2.99045,7.91785" id="Stroke-11" stroke="#0074C4" stroke-width="1.125" stroke-linecap="round" stroke-linejoin="round"></path>
            <g id="Group-15" transform="translate(0.000000, 9.275000)">
                <mask id="mask-2" fill="white">
                    <use xlink:href="#path-1"></use>
                </mask>
                <g id="Clip-14"></g>
                <path d="M5.1529,8.86305 C3.1424,9.08005 1.3369,7.62505 1.1204,5.61455 C0.9039,3.60355 2.3589,1.79855 4.3694,1.58155 C6.3799,1.36555 8.1854,2.82005 8.4019,4.83105 C8.6184,6.84155 7.1634,8.64655 5.1529,8.86305 M4.3629,0.36505 C1.6804,0.65355 -0.2601,3.06255 0.0284,5.74555 C0.3174,8.42805 2.7259,10.36905 5.4089,10.08055 C8.0914,9.79105 10.0324,7.38255 9.7434,4.70005 C9.4549,2.01705 7.0459,0.07655 4.3629,0.36505" id="Fill-13" fill="#0076BB" mask="url(#mask-2)"></path>
            </g>
            <g id="Group-18" transform="translate(8.000000, 15.775000)">
                <mask id="mask-4" fill="white">
                    <use xlink:href="#path-3"></use>
                </mask>
                <g id="Clip-17"></g>
                <polygon id="Fill-16" fill="#0076BB" mask="url(#mask-4)" points="6.3719 2.79125 5.8374 4.00025 0.3129 1.55675 0.8474 0.34775"></polygon>
            </g>
        </g>
    </g>
</svg>