<?xml version="1.0" encoding="UTF-8"?>
<svg width="24px" height="24px" viewBox="0 0 24 24" version="1.1" xmlns="http://www.w3.org/2000/svg" xmlns:xlink="http://www.w3.org/1999/xlink">
    <!-- Generator: Sketch 52.2 (67145) - http://www.bohemiancoding.com/sketch -->
    <title>Messages</title>
    <desc>Created with Sketch.</desc>
    <g id="Messages" stroke="none" stroke-width="1" fill="none" fill-rule="evenodd">
        <g id="Page-1" transform="translate(1.500000, 3.750000)">
            <path d="M16.8877487,17.25 L13.8165961,16.413875 C13.1209809,16.7186752 12.3834681,16.8728543 11.6252934,16.8728543 L11.5902831,16.8728543 C10.0871344,16.8633663 8.67868578,16.249615 7.62263629,15.1454556 C6.56716075,14.0407032 5.99092505,12.5777809 6.00010809,11.0253162 C6.01904811,7.8213564 8.56160203,5.2293689 11.6597298,5.25012378 C13.1623046,5.25961172 14.5707532,5.87277005 15.6268027,6.97752245 C16.6828522,8.08227484 17.2585139,9.54519709 17.2499048,11.0976618 C17.2418697,12.3299084 16.865939,13.5046344 16.1617147,14.4955315 L16.8877487,17.25 Z" id="Stroke-1" stroke="#0075C8" stroke-width="1.125" stroke-linecap="round" stroke-linejoin="round"></path>
            <path d="M6.55942813,13.4490367 C5.73756089,13.5070198 4.92906208,13.406402 4.1554374,13.150594 L0.868549678,14.25 L1.45036658,11.3480002 C0.615130925,10.3855936 0.121080605,9.21285601 0.0193643622,7.95200674 C-0.109088721,6.35860705 0.404723612,4.81238973 1.46547871,3.59701744 C2.52739628,2.38221362 4.00780354,1.64378115 5.63700712,1.51871946 C5.64979431,1.51758253 5.66258149,1.51644561 5.67536868,1.51587715 C7.97299329,1.35272848 10.073579,2.46009294 11.25,4.23085285" id="Stroke-3" stroke="#0075C8" stroke-width="1.125" stroke-linecap="round" stroke-linejoin="round"></path>
            <path d="M11.2599954,5.25303631 C11.1081,2.86571327 12.701464,0.649845123 15.081363,0.118086465 C16.3555622,-0.166429265 17.6629692,0.0671469676 18.7637494,0.77595144 C19.8639146,1.48537713 20.6252363,2.5843036 20.9075034,3.87083652 C21.1313492,4.89335376 21.0323405,5.93885588 20.6209316,6.89676692 L21.75,9.03684703 L18.9925149,8.9424226 C18.4599587,9.33068097 17.8646765,9.60215121 17.2220422,9.75" id="Stroke-5" stroke="#0075C8" stroke-width="1.125" stroke-linecap="round" stroke-linejoin="round"></path>
            <path d="M9,12.75 L13.0833171,12.75 L13.0833171,11.7971698 L9,11.7971698 L9,12.75 Z M11.3949776,10.3950472 L15,10.3950472 L15,9.44221698 L11.3949776,9.44221698 L11.3949776,10.3950472 Z M10.8203231,9.91863208 C10.8203231,10.4262972 10.4126922,10.8378538 9.91045357,10.8378538 C9.40763091,10.8378538 9,10.4262972 9,9.91863208 C9,9.4115566 9.40763091,9 9.91045357,9 C10.4126922,9 10.8203231,9.4115566 10.8203231,9.91863208 Z" id="Fill-7" fill="#0075C8"></path>
        </g>
    </g>
</svg>