<?xml version="1.0" encoding="UTF-8"?>
<svg width="24px" height="24px" viewBox="0 0 24 24" version="1.1" xmlns="http://www.w3.org/2000/svg" xmlns:xlink="http://www.w3.org/1999/xlink">
    <!-- Generator: Sketch 52.2 (67145) - http://www.bohemiancoding.com/sketch -->
    <title>SDKs Tools</title>
    <desc>Created with Sketch.</desc>
    <g id="SDKs-Tools" stroke="none" stroke-width="1" fill="none" fill-rule="evenodd" stroke-linecap="round" stroke-linejoin="round">
        <g id="Page-1" transform="translate(1.500000, 3.750000)" stroke="#0074C4" stroke-width="1.125">
            <polyline id="Stroke-1" points="1.33382812 9.01175625 1.33382812 15.1890375 19.6543594 15.1890375 19.6543594 9.01175625"></polyline>
            <path d="M4.57150312,8.8977 L0.328190625,8.8977 L0.328190625,2.5255125 L20.7060656,2.5255125 L20.7060656,8.8977 L16.4627531,8.8977 M12.4084406,8.92854375 L8.62581562,8.92854375" id="Stroke-3"></path>
            <path d="M7.89691875,10.2966937 L4.9037625,10.2966937 C4.6990125,10.2966937 4.5336375,10.1313188 4.5336375,9.92656875 L4.5336375,7.67825625 C4.5336375,7.47285 4.6990125,7.307475 4.9037625,7.307475 L7.89691875,7.307475 C8.10166875,7.307475 8.26704375,7.47285 8.26704375,7.67825625 L8.26704375,9.92656875 C8.26704375,10.1313188 8.10166875,10.2966937 7.89691875,10.2966937 Z" id="Stroke-5"></path>
            <path d="M6.27427255,2.42169375 L6.274275,1.59875625 C6.27361875,1.26013125 6.40486875,0.94119375 6.64505625,0.70100625 C6.88524375,0.46081875 7.203525,0.3289125 7.5434625,0.32825625 L13.4904,0.32825625 C14.1906188,0.32825625 14.7615563,0.89788125 14.7615563,1.5981 L14.7615563,2.42169375" id="Stroke-7"></path>
            <path d="M16.0353375,10.2966937 L13.0421813,10.2966937 C12.8380875,10.2966937 12.6720563,10.1313188 12.6720563,9.92656875 L12.6720563,7.67825625 C12.6720563,7.57981875 12.7114313,7.48531875 12.7803375,7.41575625 C12.8499,7.34685 12.9437438,7.307475 13.0421813,7.307475 L16.0353375,7.307475 C16.2400875,7.307475 16.4054625,7.47285 16.4054625,7.67825625 L16.4054625,9.92656875 C16.4054625,10.1313188 16.2400875,10.2966937 16.0353375,10.2966937 Z" id="Stroke-9"></path>
        </g>
    </g>
</svg>