<?xml version="1.0" encoding="UTF-8"?>
<svg width="24px" height="24px" viewBox="0 0 24 24" version="1.1" xmlns="http://www.w3.org/2000/svg" xmlns:xlink="http://www.w3.org/1999/xlink">
    <!-- Generator: Sketch 52.2 (67145) - http://www.bohemiancoding.com/sketch -->
    <title>SIP Trunking</title>
    <desc>Created with Sketch.</desc>
    <g id="SIP-Trunking" stroke="none" stroke-width="1" fill="none" fill-rule="evenodd">
        <g id="Page-1" transform="translate(0.750000, 4.500000)">
            <path d="M9.60200669,13.5 L3.70986622,13.5 L3.63712375,13.5 C1.52759197,13.2822581 0,11.5403226 0,9.43548387 C0,7.5483871 1.30936455,5.87903226 3.2006689,5.44354839 C3.92809365,3.7016129 5.60117057,2.61290323 7.49247492,2.61290323 C7.78344482,2.61290323 8.07441472,2.61290323 8.36538462,2.68548387 C9.60200669,0.943548387 11.638796,0 13.7483278,0 C17.3134365,0 20.2231355,2.83064516 20.367893,6.38709677 C21.2408027,7.11290323 21.75,8.2016129 21.75,9.36290323 C21.75,11.6854839 19.9314381,13.5 17.6036789,13.5 C16.174668,13.5 15.1029098,13.5 14.3884043,13.5 C14.1653401,13.5 13.8307438,13.5 13.3846154,13.5" id="Stroke-1" stroke="#0075C9" stroke-width="1.125" stroke-linecap="round" stroke-linejoin="round"></path>
            <path d="M12.825,7.2625148 L12.825,5.60937764 C12.825,5.39375106 12.67575,5.25 12.45,5.25 C12.225,5.25 12.075,5.39375106 12.075,5.60937764 L12.075,7.2625148 L11.175,7.2625148 L11.175,5.60937764 C11.175,5.39375106 11.02575,5.25 10.8,5.25 C10.575,5.25 10.425,5.39375106 10.425,5.60937764 L10.425,7.2625148 L9,7.2625148 L9,9.41878065 C9,9.85003382 9.375,10.281287 9.90075,10.281287 L10.125,10.281287 L10.27575,10.7125402 C10.40325,11.0194487 10.70025,11.2616692 11.0625,11.329951 L11.0625,17.4609335 C11.0625,17.759217 11.3145,18 11.625,18 C11.9355,18 12.1875,17.759217 12.1875,17.4609335 L12.1875,11.341451 C12.585,11.2961695 12.90675,11.0338238 12.975,10.6406646 L13.05075,10.281287 L13.35,10.281287 C13.875,10.281287 14.25,9.92190935 14.25,9.41878065 L14.25,7.2625148 L12.825,7.2625148 Z" id="Fill-3" fill="#0075C9"></path>
        </g>
    </g>
</svg>