<?xml version="1.0" encoding="UTF-8"?>
<svg width="24px" height="24px" viewBox="0 0 24 24" version="1.1" xmlns="http://www.w3.org/2000/svg" xmlns:xlink="http://www.w3.org/1999/xlink">
    <!-- Generator: Sketch 52.2 (67145) - http://www.bohemiancoding.com/sketch -->
    <title>SMS API</title>
    <desc>Created with Sketch.</desc>
    <g id="SMS-API" stroke="none" stroke-width="1" fill="none" fill-rule="evenodd">
        <g id="Page-1" transform="translate(4.500000, 3.000000)">
            <path d="M1.5,9 L7.04177226,9 L7.04177226,8.04719573 L1.5,8.04719573 L1.5,9 Z M3.94625194,6.64526426 L8.25,6.64526426 L8.25,5.69246 L3.94625194,5.69246 L3.94625194,6.64526426 Z M3.35890624,6.16886213 C3.35890624,6.67678196 2.94322734,7.08772426 2.42945312,7.08772426 C1.916292,7.08772426 1.5,6.67678196 1.5,6.16886213 C1.5,5.66154841 1.916292,5.25 2.42945312,5.25 C2.94322734,5.25 3.35890624,5.66154841 3.35890624,6.16886213 Z" id="Fill-1" fill="#0075C8"></path>
            <path d="M4.5,14.25 C4.5,13.8363493 4.83634933,13.5 5.25,13.5 C5.66306058,13.5 6,13.8363493 6,14.25 C6,14.6636507 5.66306058,15 5.25,15 C4.83634933,15 4.5,14.6636507 4.5,14.25 Z" id="Fill-3" fill="#0075C8"></path>
            <path d="M10.5,6.78253818 L10.5,2.00687084 C10.5,0.900317959 9.64111842,0 8.58421053,0 L1.91578947,0 C0.859457237,0 0,0.900317959 0,2.00687084 L0,14.4931292 C0,15.599682 0.859457237,16.5 1.91578947,16.5 L8.58421053,16.5" id="Stroke-4" stroke="#0075C8" stroke-width="1.125" stroke-linecap="round" stroke-linejoin="round"></path>
            <polygon id="Fill-5" fill="#0075C8" points="12 5.25 10.4994985 8.25 9 5.25"></polygon>
            <path d="M15.4845365,18 L13.2329541,17.3730449 C12.7144756,17.6050537 12.1652683,17.7195822 11.5992998,17.7172208 C9.32536925,17.702462 7.4861114,15.7348146 7.50007903,13.3320769 C7.51404666,10.9281585 9.37565272,8.98707703 11.6507007,9.0000648 C12.7519089,9.00773939 13.7855137,9.46762457 14.5598792,10.2958902 C15.333686,11.1247461 15.756626,12.2216224 15.7499215,13.385799 C15.7443344,14.3102922 15.4688927,15.1910993 14.9520903,15.934354 L15.4845365,18 Z" id="Stroke-6" stroke="#0075C8" stroke-width="1.125" stroke-linecap="round" stroke-linejoin="round"></path>
        </g>
    </g>
</svg>