<?xml version="1.0" encoding="UTF-8"?>
<svg width="24px" height="24px" viewBox="0 0 24 24" version="1.1" xmlns="http://www.w3.org/2000/svg" xmlns:xlink="http://www.w3.org/1999/xlink">
    <!-- Generator: Sketch 52.2 (67145) - http://www.bohemiancoding.com/sketch -->
    <title>TokBox</title>
    <desc>Created with Sketch.</desc>
    <g id="TokBox" stroke="none" stroke-width="1" fill="none" fill-rule="evenodd">
        <path d="M12.4539433,13.9237975 C12.0218326,13.9237975 11.589722,13.7386072 11.2810715,13.4299568 C10.972421,13.1213063 10.7872307,12.6891956 10.7872307,12.257085 C10.7872307,11.3311336 11.5279919,10.5909897 12.4539433,10.5909897 C13.3798947,10.5909897 14.1206558,11.3311336 14.1206558,12.257085 C14.1206558,12.6891956 13.9354656,13.1213063 13.6268151,13.4299568 C13.2564345,13.8009546 12.886054,13.9237975 12.4539433,13.9237975 Z M12.268753,20.9610283 C10.29339,20.9610283 8.50321726,20.2826145 6.83650471,18.9245525 C5.29325236,17.6276032 4.30557085,15.8991605 3.87346019,13.8009546 C3.81173009,13.3064966 3.75,12.8126558 3.75,12.257085 L3.75,10.4669122 L3.75,4.17044263 C3.75,4.10932984 3.75,3.92352225 3.87346019,3.80067936 C3.99692038,3.67660188 4.12038057,3.67660188 4.24384075,3.67660188 L6.58958434,3.67660188 L12.6391336,3.67660188 C15.2935276,3.80067936 17.515811,4.91120376 19.1825236,7.01002697 C20.108475,8.18289876 20.7257759,9.54096083 20.9109662,11.0224831 C21.2196167,13.3064966 20.7257759,15.4670499 19.4294439,17.3189527 C18.3183023,18.8622051 16.8985101,19.9739641 15.1700674,20.5289176 C14.1823859,20.8375681 13.1947044,20.9610283 12.268753,20.9610283 Z" id="Page-1" stroke="#0075C9" stroke-width="1.125"></path>
    </g>
</svg>