<?xml version="1.0" encoding="UTF-8"?>
<svg width="24px" height="24px" viewBox="0 0 24 24" version="1.1" xmlns="http://www.w3.org/2000/svg" xmlns:xlink="http://www.w3.org/1999/xlink">
    <!-- Generator: Sketch 52.2 (67145) - http://www.bohemiancoding.com/sketch -->
    <title>Tutorials</title>
    <desc>Created with Sketch.</desc>
    <g id="Tutorials" stroke="none" stroke-width="1" fill="none" fill-rule="evenodd" stroke-linecap="round" stroke-linejoin="round">
        <g id="Page-1" transform="translate(1.500000, 2.250000)" stroke="#0074C4" stroke-width="1.125">
            <path d="M7.67858,9.64704 L7.67858,14.89969 C7.67858,15.13954 7.87293,15.33324 8.11213,15.33324 L18.82283,15.33324 C19.06268,15.33324 19.25638,15.13954 19.25638,14.89969 L19.25638,0.75894 C19.25638,0.51909 19.06268,0.32474 18.82283,0.32474 L8.11213,0.32474 C7.87293,0.32474 7.67858,0.51909 7.67858,0.75894 L7.67858,4.88189" id="Stroke-1"></path>
            <path d="M2.01136,13.97929 C1.09746,13.97929 0.32461,13.13689 0.32461,12.13849 L0.32461,8.87354 C0.32461,7.70224 0.84721,6.30669 3.33541,6.30669 L9.95696,6.30669 C10.15651,6.30669 10.31836,6.48089 10.31836,6.69604 C10.31836,7.73864 9.49026,8.40229 8.30206,8.40229 L6.39431,8.40164 L6.39431,18.53579" id="Stroke-3"></path>
            <path d="M4.09214,18.53566 L4.09214,13.28366" id="Stroke-5"></path>
            <path d="M4.09214,18.53566 L4.09214,13.28366" id="Stroke-7"></path>
            <path d="M1.787305,18.53566 L1.787305,8.83961" id="Stroke-9"></path>
            <path d="M1.787305,18.53566 L1.787305,8.83961" id="Stroke-11"></path>
            <path d="M4.38542,0.81237 C3.27262,0.81237 2.43347,1.58782 2.43347,2.61612 L2.43347,3.68277 C2.43347,4.71107 3.27262,5.48587 4.38542,5.48587 C5.49822,5.48587 6.33737,4.71107 6.33737,3.68277 L6.33737,2.61612 C6.33737,1.58782 5.49822,0.81237 4.38542,0.81237 Z" id="Stroke-13"></path>
            <path d="M10.149685,18.53566 L12.955085,15.67826 C13.036335,15.59506 13.147485,15.54826 13.264485,15.54826 C13.380835,15.54826 13.492635,15.59571 13.574535,15.67826 L16.378635,18.53566" id="Stroke-15"></path>
            <path d="M10.095085,3.14353 L16.772535,3.14353" id="Stroke-17"></path>
            <path d="M12.627225,5.31128 L16.660475,5.31128" id="Stroke-19"></path>
            <path d="M12.627225,7.47929 L16.660475,7.47929" id="Stroke-21"></path>
            <path d="M12.627225,7.47929 L16.660475,7.47929" id="Stroke-23"></path>
            <path d="M12.627225,9.647365 L16.660475,9.647365" id="Stroke-25"></path>
            <path d="M12.627225,9.647365 L16.660475,9.647365" id="Stroke-27"></path>
            <path d="M10.025925,11.81505 L16.702725,11.81505" id="Stroke-29"></path>
            <path d="M10.025925,11.81505 L16.702725,11.81505" id="Stroke-31"></path>
        </g>
    </g>
</svg>