<?xml version="1.0" encoding="UTF-8"?>
<svg width="24px" height="24px" viewBox="0 0 24 24" version="1.1" xmlns="http://www.w3.org/2000/svg" xmlns:xlink="http://www.w3.org/1999/xlink">
    <!-- Generator: Sketch 52.2 (67145) - http://www.bohemiancoding.com/sketch -->
    <title>Use Cases</title>
    <desc>Created with Sketch.</desc>
    <g id="Use-Cases" stroke="none" stroke-width="1" fill="none" fill-rule="evenodd">
        <g id="Page-1" transform="translate(0.750000, 1.500000)">
            <path d="M14.3474,16.34755 L14.3474,16.69455 C14.3474,16.74355 14.3649,16.78705 14.3754,16.83305 L17.3069,16.83305 C17.3174,16.78705 17.3349,16.74355 17.3349,16.69455 L17.3349,16.34755 L14.3474,16.34755 Z" id="Fill-1" fill="#0074C4"></path>
            <path d="M15.8418,8.60045 C13.9533,8.60045 12.4168,10.13645 12.4168,12.02445 C12.4168,13.33895 13.1713,14.53195 14.3473,15.10395 L14.3473,15.84745 L17.3348,15.84745 L17.3348,15.10395 C18.5113,14.53295 19.2653,13.33995 19.2653,12.02445 C19.2653,10.13595 17.7293,8.60045 15.8418,8.60045" id="Fill-3" fill="#0074C4"></path>
            <path d="M15.0581,17.3329 C15.2146,17.6404 15.4851,17.8324 15.7831,17.8324 L15.9006,17.8324 C16.1996,17.8324 16.4701,17.6404 16.6251,17.3329 L15.0581,17.3329 Z" id="Fill-5" fill="#0074C4"></path>
            <path d="M21.5281,20.10485 L0.9796,20.10485 C0.6456,20.10485 0.3751,19.83385 0.3751,19.49985 L0.3751,0.97985 C0.3751,0.64585 0.6456,0.37485 0.9796,0.37485 L21.5281,0.37485 C21.8621,0.37485 22.1326,0.64585 22.1326,0.97985 L22.1326,19.49985 C22.1326,19.83385 21.8621,20.10485 21.5281,20.10485 Z" id="Stroke-7" stroke="#0074C4" stroke-width="1.125" stroke-linecap="round"></path>
            <path d="M0.375,4.21715 L22.133,4.21715" id="Stroke-9" stroke="#0074C4" stroke-width="1.125" stroke-linecap="round"></path>
            <path d="M2.8357,2.31775 C2.8357,2.60375 2.6037,2.83575 2.3177,2.83575 C2.0317,2.83575 1.7997,2.60375 1.7997,2.31775 C1.7997,2.03175 2.0317,1.79975 2.3177,1.79975 C2.6037,1.79975 2.8357,2.03175 2.8357,2.31775" id="Fill-11" fill="#0074C4"></path>
            <path d="M4.5342,2.31775 C4.5342,2.60375 4.3022,2.83575 4.0162,2.83575 C3.7302,2.83575 3.4982,2.60375 3.4982,2.31775 C3.4982,2.03175 3.7302,1.79975 4.0162,1.79975 C4.3022,1.79975 4.5342,2.03175 4.5342,2.31775" id="Fill-13" fill="#0074C4"></path>
            <path d="M6.23265,2.31775 C6.23265,2.60375 6.00065,2.83575 5.71465,2.83575 C5.42865,2.83575 5.19665,2.60375 5.19665,2.31775 C5.19665,2.03175 5.42865,1.79975 5.71465,1.79975 C6.00065,1.79975 6.23265,2.03175 6.23265,2.31775" id="Fill-15" fill="#0074C4"></path>
            <path d="M15.9241,9.5204 C15.9056,9.5184 15.8891,9.5184 15.8726,9.5184 C14.7301,9.5179 13.7076,10.2829 13.3866,11.3779" id="Stroke-17" stroke="#FEFEFE" stroke-width="0.75" stroke-linecap="round" stroke-linejoin="round"></path>
            <path d="M13.0139,6.45445 L13.9439,7.85395" id="Stroke-19" stroke="#0074C4" stroke-width="1.125" stroke-linecap="round"></path>
            <path d="M17.79715,7.87 L18.83365,6.5435" id="Stroke-21" stroke="#0074C4" stroke-width="1.125" stroke-linecap="round"></path>
            <path d="M16.01245,5.73035 L16.01245,7.35435" id="Stroke-23" stroke="#0074C4" stroke-width="1.125" stroke-linecap="round"></path>
            <path d="M3.05395,8.1288 L8.75145,8.1288" id="Stroke-25" stroke="#0074C4" stroke-width="1.125" stroke-linecap="round"></path>
            <path d="M3.05395,10.8163 L8.75145,10.8163" id="Stroke-27" stroke="#0074C4" stroke-width="1.125" stroke-linecap="round"></path>
            <path d="M3.0542,13.6317 L8.7517,13.6317" id="Stroke-29" stroke="#0074C4" stroke-width="1.125" stroke-linecap="round"></path>
            <path d="M3.0542,16.3197 L6.3257,16.3197" id="Stroke-31" stroke="#0074C4" stroke-width="1.125" stroke-linecap="round"></path>
        </g>
    </g>
</svg>