<?xml version="1.0" encoding="UTF-8"?>
<svg width="24px" height="24px" viewBox="0 0 24 24" version="1.1" xmlns="http://www.w3.org/2000/svg" xmlns:xlink="http://www.w3.org/1999/xlink">
    <!-- Generator: Sketch 52.2 (67145) - http://www.bohemiancoding.com/sketch -->
    <title>Verify@1x</title>
    <desc>Created with Sketch.</desc>
    <g id="Verify" stroke="none" stroke-width="1" fill="none" fill-rule="evenodd">
        <g id="Page-1" transform="translate(1.500000, 2.250000)">
            <path d="M11.25,8.25 L4.5,15" id="Stroke-1" stroke="#0075C8" stroke-width="0.75" stroke-linecap="round" stroke-linejoin="round"></path>
            <g id="Group-10">
                <path d="M14.3919818,4.872825 C14.1986864,4.872825 14.0164364,4.94768864 13.8795955,5.08514318 C13.5967091,5.36741591 13.5967091,5.82764318 13.8795955,6.11052955 C14.1618682,6.39280227 14.6220955,6.39280227 14.9043682,6.11052955 C15.0418227,5.973075 15.1173,5.790825 15.1173,5.59752955 C15.1173,5.40362045 15.0418227,5.22137045 14.9043682,5.08514318 C14.7675273,4.94768864 14.5852773,4.872825 14.3919818,4.872825 M14.3919818,6.37377955 C14.1931636,6.37377955 13.9943455,6.29830227 13.8421636,6.14673409 C13.5390273,5.84421136 13.5390273,5.35084773 13.8421636,5.04771136 C13.9894364,4.90105227 14.1845727,4.82005227 14.3919818,4.82005227 C14.5993909,4.82005227 14.7945273,4.90105227 14.9418,5.04771136 C15.0884591,5.19437045 15.1694591,5.39012045 15.1694591,5.59752955 C15.1694591,5.80555227 15.0884591,6.000075 14.9418,6.14673409 C14.7896182,6.29830227 14.5908,6.37377955 14.3919818,6.37377955" id="Fill-2" fill="#0075C8"></path>
                <path d="M7.20513409,15.5413841 L6.56265682,14.8982932 C6.43624773,14.7718841 6.23067955,14.7718841 6.10365682,14.8982932 L5.802975,15.1995886 C5.67656591,15.3259977 5.67656591,15.5315659 5.802975,15.657975 L6.44545227,16.3004523 C6.572475,16.427475 6.77804318,16.427475 6.90445227,16.3004523 L7.20513409,15.9997705 C7.33215682,15.8733614 7.33215682,15.6677932 7.20513409,15.5413841 M7.23704318,14.9142477 L6.87070227,14.5472932 C6.75595227,14.4325432 6.75595227,14.2466114 6.87070227,14.1318614 L7.21495227,13.7876114 C7.32970227,13.6728614 7.51563409,13.6728614 7.63038409,13.7876114 L7.996725,14.1539523 C8.111475,14.2687023 8.111475,14.4546341 7.996725,14.5693841 L7.652475,14.9142477 C7.537725,15.0283841 7.35117955,15.0283841 7.23704318,14.9142477" id="Fill-4" fill="#0075C8"></path>
                <path d="M14.9229,6.12826364 C14.6295818,6.42219545 14.1540136,6.42219545 13.8613091,6.12826364 C13.5673773,5.83494545 13.5673773,5.35937727 13.8613091,5.06667273 C14.1540136,4.77335455 14.6295818,4.77335455 14.9229,5.06667273 C15.2168318,5.35937727 15.2168318,5.83494545 14.9229,6.12826364 M15.5702864,4.4199 C14.59215,3.44176364 13.0071273,3.44176364 12.0296045,4.4199 C11.0514682,5.39742273 11.0514682,6.98244545 12.0296045,7.95935455 C13.0071273,8.93749091 14.59215,8.93749091 15.5702864,7.95935455 C16.5471955,6.98244545 16.5471955,5.39742273 15.5702864,4.4199" id="Fill-6" fill="#0075C8"></path>
                <path d="M19.7702591,10.2115841 C19.7702591,15.586425 15.4134409,19.9426295 10.0386,19.9426295 C4.66375909,19.9426295 0.306940909,15.586425 0.306940909,10.2115841 C0.306940909,4.83612955 4.66375909,0.479925 10.0386,0.479925 C15.4134409,0.479925 19.7702591,4.83612955 19.7702591,10.2115841 Z" id="Stroke-8" stroke="#0075C8" stroke-width="1.125" stroke-linecap="round" stroke-linejoin="round"></path>
            </g>
        </g>
    </g>
</svg>