<?xml version="1.0" encoding="UTF-8"?>
<svg width="24px" height="24px" viewBox="0 0 24 24" version="1.1" xmlns="http://www.w3.org/2000/svg" xmlns:xlink="http://www.w3.org/1999/xlink">
    <!-- Generator: Sketch 52.2 (67145) - http://www.bohemiancoding.com/sketch -->
    <title>Virtual Phone Numbers</title>
    <desc>Created with Sketch.</desc>
    <g id="Virtual-Phone-Numbers" stroke="none" stroke-width="1" fill="none" fill-rule="evenodd">
        <g id="Page-1" transform="translate(0.750000, 3.000000)">
            <path d="M12.1341463,8.25 L12.1341463,9.5 L10.4878049,9.5 L10.4878049,8.25 L8.7195122,8.25 L8.7195122,9.5 L7.5,9.5 L7.5,11.2261905 L8.7195122,11.2261905 L8.7195122,12.8333333 L7.5,12.8333333 L7.5,14.5 L8.7195122,14.5 L8.7195122,15.75 L10.4878049,15.75 L10.4878049,14.5 L12.1341463,14.5 L12.1341463,15.75 L13.9030488,15.75 L13.9030488,14.5 L15,14.5 L15,12.7738095 L13.9030488,12.7738095 L13.9030488,11.1666667 L15,11.1666667 L15,9.5 L13.9030488,9.5 L13.9030488,8.25 L12.1341463,8.25 Z M10.5,12.75 L12,12.75 L12,11.25 L10.5,11.25 L10.5,12.75 Z M15,11.325 L15,11.25 L15,11.325 Z" id="Fill-1" fill="#0075C9"></path>
            <path d="M5.75638796,13.5 L3.5819398,13.5 L3.51170569,13.5 C1.47491639,13.2822581 0,11.5403226 0,9.43475806 C0,7.5483871 1.26421405,5.87903226 3.090301,5.44354839 C3.79264214,3.7016129 5.40802676,2.61290323 7.23411371,2.61290323 C7.51505017,2.61290323 7.79598662,2.61290323 8.07692308,2.68548387 C9.27090301,0.943548387 11.2374582,0 13.2742475,0 C16.7157191,0 19.5250836,2.83064516 19.6655518,6.38709677 C20.5083612,7.11290323 21,8.2016129 21,9.36290323 C21,11.6854839 19.2441472,13.5 16.9966555,13.5 L16.437592,13.5" id="Stroke-2" stroke="#0075C9" stroke-width="1.125" stroke-linecap="round" stroke-linejoin="round"></path>
        </g>
    </g>
</svg>